<mxfile host="Electron" modified="2025-01-28T21:08:59.268Z" agent="Mozilla/5.0 (Windows NT 10.0; Win64; x64) AppleWebKit/537.36 (KHTML, like Gecko) draw.io/24.6.4 Chrome/124.0.6367.207 Electron/30.0.6 Safari/537.36" etag="qlL6GzxFMKKsTTjTyLha" version="24.6.4" type="device">
  <diagram name="Page-1" id="aNWwzqXz-StgDCO1wI7D">
    <mxGraphModel dx="1290" dy="765" grid="1" gridSize="10" guides="1" tooltips="1" connect="1" arrows="1" fold="1" page="1" pageScale="1" pageWidth="850" pageHeight="1100" math="0" shadow="0">
      <root>
        <mxCell id="0" />
        <mxCell id="1" parent="0" />
        <mxCell id="2Bs1vBYmMxsOLWfm3BsM-2" value="" style="rounded=1;whiteSpace=wrap;html=1;" parent="1" vertex="1">
          <mxGeometry x="260" y="10" width="380" height="680" as="geometry" />
        </mxCell>
        <mxCell id="2Bs1vBYmMxsOLWfm3BsM-3" value="&lt;span style=&quot;font-size: 14px;&quot;&gt;&lt;b&gt;Fibrinet&lt;/b&gt;&lt;/span&gt;" style="text;html=1;align=center;verticalAlign=middle;whiteSpace=wrap;rounded=0;" parent="1" vertex="1">
          <mxGeometry x="420" y="40" width="60" height="30" as="geometry" />
        </mxCell>
        <mxCell id="2Bs1vBYmMxsOLWfm3BsM-4" value="Human User" style="shape=umlActor;verticalLabelPosition=bottom;verticalAlign=top;html=1;outlineConnect=0;" parent="1" vertex="1">
          <mxGeometry x="60" y="295" width="40" height="80" as="geometry" />
        </mxCell>
        <mxCell id="2Bs1vBYmMxsOLWfm3BsM-7" value="Input Network" style="ellipse;whiteSpace=wrap;html=1;" parent="1" vertex="1">
          <mxGeometry x="380" y="90" width="140" height="70" as="geometry" />
        </mxCell>
        <mxCell id="2Bs1vBYmMxsOLWfm3BsM-8" value="Modify Network" style="ellipse;whiteSpace=wrap;html=1;" parent="1" vertex="1">
          <mxGeometry x="380" y="300" width="140" height="70" as="geometry" />
        </mxCell>
        <mxCell id="2Bs1vBYmMxsOLWfm3BsM-19" value="Undo Degradation" style="ellipse;whiteSpace=wrap;html=1;" parent="1" vertex="1">
          <mxGeometry x="310" y="190" width="140" height="70" as="geometry" />
        </mxCell>
        <mxCell id="2Bs1vBYmMxsOLWfm3BsM-20" value="&amp;lt;&amp;lt;extend&amp;gt;&amp;gt;" style="endArrow=open;endSize=12;dashed=1;html=1;rounded=0;entryX=0.5;entryY=1;entryDx=0;entryDy=0;exitX=0;exitY=0;exitDx=0;exitDy=0;" parent="1" source="2Bs1vBYmMxsOLWfm3BsM-8" target="2Bs1vBYmMxsOLWfm3BsM-19" edge="1">
          <mxGeometry width="160" relative="1" as="geometry">
            <mxPoint x="390" y="365" as="sourcePoint" />
            <mxPoint x="440" y="420" as="targetPoint" />
          </mxGeometry>
        </mxCell>
        <mxCell id="2Bs1vBYmMxsOLWfm3BsM-26" value="Create Report" style="ellipse;whiteSpace=wrap;html=1;" parent="1" vertex="1">
          <mxGeometry x="380" y="500" width="140" height="70" as="geometry" />
        </mxCell>
        <mxCell id="2Bs1vBYmMxsOLWfm3BsM-39" value="Degrade Network" style="ellipse;whiteSpace=wrap;html=1;" parent="1" vertex="1">
          <mxGeometry x="465" y="190" width="140" height="70" as="geometry" />
        </mxCell>
        <mxCell id="2Bs1vBYmMxsOLWfm3BsM-40" value="&amp;lt;&amp;lt;extend&amp;gt;&amp;gt;" style="endArrow=open;endSize=12;dashed=1;html=1;rounded=0;entryX=0.5;entryY=1;entryDx=0;entryDy=0;exitX=1;exitY=0;exitDx=0;exitDy=0;" parent="1" source="2Bs1vBYmMxsOLWfm3BsM-8" target="2Bs1vBYmMxsOLWfm3BsM-39" edge="1">
          <mxGeometry x="-0.233" y="-4" width="160" relative="1" as="geometry">
            <mxPoint x="400" y="325" as="sourcePoint" />
            <mxPoint x="440" y="320" as="targetPoint" />
            <mxPoint as="offset" />
          </mxGeometry>
        </mxCell>
        <mxCell id="2Bs1vBYmMxsOLWfm3BsM-43" value="Modify Network Properties" style="ellipse;whiteSpace=wrap;html=1;" parent="1" vertex="1">
          <mxGeometry x="380" y="420" width="140" height="70" as="geometry" />
        </mxCell>
        <mxCell id="2Bs1vBYmMxsOLWfm3BsM-44" value="&amp;lt;&amp;lt;extends&amp;gt;&amp;gt;" style="endArrow=open;endSize=12;dashed=1;html=1;rounded=0;entryX=0.5;entryY=0;entryDx=0;entryDy=0;exitX=0.5;exitY=1;exitDx=0;exitDy=0;" parent="1" source="2Bs1vBYmMxsOLWfm3BsM-8" target="2Bs1vBYmMxsOLWfm3BsM-43" edge="1">
          <mxGeometry width="160" relative="1" as="geometry">
            <mxPoint x="200.00275557952384" y="672.3947300009249" as="sourcePoint" />
            <mxPoint x="270.22" y="512" as="targetPoint" />
          </mxGeometry>
        </mxCell>
        <mxCell id="2Bs1vBYmMxsOLWfm3BsM-46" value="" style="endArrow=open;endFill=1;endSize=12;html=1;rounded=0;entryX=0;entryY=0.5;entryDx=0;entryDy=0;exitX=0.5;exitY=0.5;exitDx=0;exitDy=0;exitPerimeter=0;" parent="1" source="2Bs1vBYmMxsOLWfm3BsM-4" target="2Bs1vBYmMxsOLWfm3BsM-7" edge="1">
          <mxGeometry width="160" relative="1" as="geometry">
            <mxPoint x="110" y="515" as="sourcePoint" />
            <mxPoint x="730" y="480" as="targetPoint" />
          </mxGeometry>
        </mxCell>
        <mxCell id="2Bs1vBYmMxsOLWfm3BsM-47" value="" style="endArrow=open;endFill=1;endSize=12;html=1;rounded=0;exitX=0.5;exitY=0.5;exitDx=0;exitDy=0;exitPerimeter=0;entryX=0;entryY=0.5;entryDx=0;entryDy=0;" parent="1" source="2Bs1vBYmMxsOLWfm3BsM-4" target="2Bs1vBYmMxsOLWfm3BsM-8" edge="1">
          <mxGeometry width="160" relative="1" as="geometry">
            <mxPoint x="120" y="525" as="sourcePoint" />
            <mxPoint x="260" y="285" as="targetPoint" />
          </mxGeometry>
        </mxCell>
        <mxCell id="2Bs1vBYmMxsOLWfm3BsM-48" value="" style="endArrow=open;endFill=1;endSize=12;html=1;rounded=0;exitX=0.5;exitY=0.5;exitDx=0;exitDy=0;exitPerimeter=0;entryX=0;entryY=0.5;entryDx=0;entryDy=0;" parent="1" source="2Bs1vBYmMxsOLWfm3BsM-4" target="2Bs1vBYmMxsOLWfm3BsM-26" edge="1">
          <mxGeometry width="160" relative="1" as="geometry">
            <mxPoint x="120" y="525" as="sourcePoint" />
            <mxPoint x="380" y="535" as="targetPoint" />
          </mxGeometry>
        </mxCell>
        <mxCell id="2Bs1vBYmMxsOLWfm3BsM-65" value="Computer Task" style="shape=umlActor;verticalLabelPosition=bottom;verticalAlign=top;html=1;outlineConnect=0;" parent="1" vertex="1">
          <mxGeometry x="810" y="295" width="40" height="80" as="geometry" />
        </mxCell>
        <mxCell id="2Bs1vBYmMxsOLWfm3BsM-70" value="" style="endArrow=open;endFill=1;endSize=12;html=1;rounded=0;exitX=0.5;exitY=0.5;exitDx=0;exitDy=0;exitPerimeter=0;entryX=1;entryY=0.5;entryDx=0;entryDy=0;" parent="1" source="2Bs1vBYmMxsOLWfm3BsM-65" target="2Bs1vBYmMxsOLWfm3BsM-26" edge="1">
          <mxGeometry width="160" relative="1" as="geometry">
            <mxPoint x="60" y="525" as="sourcePoint" />
            <mxPoint x="520" y="535" as="targetPoint" />
          </mxGeometry>
        </mxCell>
        <mxCell id="2Bs1vBYmMxsOLWfm3BsM-71" value="" style="endArrow=open;endFill=1;endSize=12;html=1;rounded=0;exitX=0.5;exitY=0.5;exitDx=0;exitDy=0;exitPerimeter=0;entryX=1;entryY=0.5;entryDx=0;entryDy=0;" parent="1" source="2Bs1vBYmMxsOLWfm3BsM-65" target="2Bs1vBYmMxsOLWfm3BsM-8" edge="1">
          <mxGeometry width="160" relative="1" as="geometry">
            <mxPoint x="1120" y="515" as="sourcePoint" />
            <mxPoint x="735" y="795" as="targetPoint" />
          </mxGeometry>
        </mxCell>
        <mxCell id="2Bs1vBYmMxsOLWfm3BsM-72" value="" style="endArrow=open;endFill=1;endSize=12;html=1;rounded=0;exitX=0.5;exitY=0.5;exitDx=0;exitDy=0;exitPerimeter=0;entryX=1;entryY=0.5;entryDx=0;entryDy=0;" parent="1" source="2Bs1vBYmMxsOLWfm3BsM-65" target="2Bs1vBYmMxsOLWfm3BsM-7" edge="1">
          <mxGeometry width="160" relative="1" as="geometry">
            <mxPoint x="1120" y="515" as="sourcePoint" />
            <mxPoint x="504.9999999999968" y="175" as="targetPoint" />
          </mxGeometry>
        </mxCell>
        <mxCell id="NfDVRPQV_VktGSyw1Wy5-1" value="Launch Graphical View" style="ellipse;whiteSpace=wrap;html=1;" vertex="1" parent="1">
          <mxGeometry x="380" y="590" width="140" height="70" as="geometry" />
        </mxCell>
        <mxCell id="NfDVRPQV_VktGSyw1Wy5-2" value="" style="endArrow=open;endFill=1;endSize=12;html=1;rounded=0;exitX=0.5;exitY=0.5;exitDx=0;exitDy=0;exitPerimeter=0;entryX=0;entryY=0.5;entryDx=0;entryDy=0;" edge="1" parent="1" source="2Bs1vBYmMxsOLWfm3BsM-4" target="NfDVRPQV_VktGSyw1Wy5-1">
          <mxGeometry width="160" relative="1" as="geometry">
            <mxPoint x="90" y="345" as="sourcePoint" />
            <mxPoint x="390" y="345" as="targetPoint" />
          </mxGeometry>
        </mxCell>
      </root>
    </mxGraphModel>
  </diagram>
</mxfile>
